<mxfile host="app.diagrams.net" modified="2024-07-10T04:11:24.580Z" agent="Mozilla/5.0 (Windows NT 10.0; Win64; x64) AppleWebKit/537.36 (KHTML, like Gecko) Chrome/126.0.0.0 Safari/537.36 Edg/126.0.0.0" version="24.2.2" etag="ghgHwI_zyKjR0gasz9Kj" type="github">
  <diagram name="Page-1" id="yZ6wIorpvW7_8ywuTo0R">
    <mxGraphModel>
      <root>
        <mxCell id="0" />
        <mxCell id="1" parent="0" />
      </root>
    </mxGraphModel>
  </diagram>
</mxfile>
